<svg width="180" height="55" viewBox="0 0 180 55" fill="none" xmlns="http://www.w3.org/2000/svg">
<path d="M173.333 54.7852H6.66667C3 54.7852 0 51.7477 0 48.0352V7.53516C0 3.82265 3 0.78516 6.66667 0.78516H173.333C177 0.78516 180 3.82265 180 7.53516V48.0352C180 51.7477 177 54.7852 173.333 54.7852Z" fill="black"/>
<path d="M173.333 0.785156H6.66667C3 0.785156 0 3.82265 0 7.53516V48.0352C0 51.7477 3 54.7852 6.66667 54.7852H173.333C177 54.7852 180 51.7477 180 48.0352V7.53516C180 3.82265 177 0.785156 173.333 0.785156ZM173.333 1.86515C176.421 1.86515 178.933 4.40855 178.933 7.53516V48.0352C178.933 51.1618 176.421 53.7052 173.333 53.7052H6.66667C3.57867 53.7052 1.06667 51.1618 1.06667 48.0352V7.53516C1.06667 4.40855 3.57867 1.86515 6.66667 1.86515H173.333Z" fill="#A6A6A6"/>
<path d="M142.581 42.0702H145.069V25.4022H142.581V42.0702ZM164.991 31.4062L162.139 38.6329H162.053L159.093 31.4062H156.413L160.852 41.5062L158.323 47.1249H160.916L167.757 31.4062H164.991ZM150.881 40.1769C150.065 40.1769 148.929 39.7702 148.929 38.7609C148.929 37.4755 150.344 36.9822 151.567 36.9822C152.66 36.9822 153.176 37.2182 153.84 37.5395C153.647 39.0835 152.317 40.1769 150.881 40.1769ZM151.181 31.0422C149.38 31.0422 147.513 31.8355 146.743 33.5942L148.951 34.5155C149.423 33.5942 150.301 33.2929 151.224 33.2929C152.511 33.2929 153.819 34.0649 153.84 35.4382V35.6089C153.389 35.3515 152.425 34.9662 151.245 34.9662C148.865 34.9662 146.441 36.2742 146.441 38.7182C146.441 40.9489 148.393 42.3862 150.58 42.3862C152.253 42.3862 153.176 41.6355 153.755 40.7555H153.84V42.0422H156.241V35.6516C156.241 32.6929 154.033 31.0422 151.181 31.0422ZM135.805 33.4356H132.267V27.7222H135.805C137.665 27.7222 138.721 29.2622 138.721 30.5782C138.721 31.8702 137.665 33.4356 135.805 33.4356ZM135.741 25.4022H129.78V42.0702H132.267V35.7555H135.741C138.499 35.7555 141.209 33.7582 141.209 30.5782C141.209 27.3982 138.499 25.4022 135.741 25.4022ZM103.233 40.1796C101.515 40.1796 100.076 38.7409 100.076 36.7649C100.076 34.7675 101.515 33.3062 103.233 33.3062C104.931 33.3062 106.261 34.7675 106.261 36.7649C106.261 38.7409 104.931 40.1796 103.233 40.1796ZM106.091 32.3396H106.004C105.445 31.6742 104.372 31.0729 103.019 31.0729C100.183 31.0729 97.584 33.5635 97.584 36.7649C97.584 39.9435 100.183 42.4142 103.019 42.4142C104.372 42.4142 105.445 41.8129 106.004 41.1249H106.091V41.9422C106.091 44.1115 104.931 45.2715 103.061 45.2715C101.536 45.2715 100.591 44.1755 100.204 43.2515L98.0347 44.1542C98.6573 45.6582 100.312 47.5049 103.061 47.5049C105.983 47.5049 108.453 45.7862 108.453 41.5982V31.4156H106.091V32.3396ZM110.172 42.0702H112.664V25.4009H110.172V42.0702ZM116.336 36.5715C116.272 34.3809 118.033 33.2636 119.3 33.2636C120.289 33.2636 121.127 33.7569 121.405 34.4662L116.336 36.5715ZM124.069 34.6809C123.597 33.4142 122.157 31.0729 119.215 31.0729C116.293 31.0729 113.867 33.3702 113.867 36.7435C113.867 39.9222 116.272 42.4142 119.493 42.4142C122.093 42.4142 123.597 40.8249 124.22 39.9009L122.287 38.6116C121.643 39.5569 120.761 40.1796 119.493 40.1796C118.227 40.1796 117.324 39.5996 116.744 38.4622L124.327 35.3249L124.069 34.6809ZM63.6587 32.8129V35.2182H69.4147C69.2427 36.5716 68.792 37.5595 68.1053 38.2462C67.2667 39.0849 65.956 40.0089 63.6587 40.0089C60.1133 40.0089 57.3427 37.1515 57.3427 33.6075C57.3427 30.0622 60.1133 27.2062 63.6587 27.2062C65.5707 27.2062 66.9667 27.9582 67.9973 28.9249L69.6947 27.2276C68.2547 25.8529 66.344 24.7996 63.6587 24.7996C58.804 24.7996 54.7227 28.7529 54.7227 33.6075C54.7227 38.4622 58.804 42.4142 63.6587 42.4142C66.2787 42.4142 68.2547 41.5542 69.8013 39.9436C71.392 38.3542 71.8853 36.1209 71.8853 34.3155C71.8853 33.7569 71.8427 33.2422 71.756 32.8129H63.6587ZM78.4307 40.1796C76.712 40.1796 75.2293 38.7622 75.2293 36.7435C75.2293 34.7022 76.712 33.3062 78.4307 33.3062C80.148 33.3062 81.6307 34.7022 81.6307 36.7435C81.6307 38.7622 80.148 40.1796 78.4307 40.1796ZM78.4307 31.0729C75.2933 31.0729 72.7373 33.4569 72.7373 36.7435C72.7373 40.0089 75.2933 42.4142 78.4307 42.4142C81.5667 42.4142 84.1227 40.0089 84.1227 36.7435C84.1227 33.4569 81.5667 31.0729 78.4307 31.0729ZM90.848 40.1796C89.1293 40.1796 87.6467 38.7622 87.6467 36.7435C87.6467 34.7022 89.1293 33.3062 90.848 33.3062C92.5667 33.3062 94.048 34.7022 94.048 36.7435C94.048 38.7622 92.5667 40.1796 90.848 40.1796ZM90.848 31.0729C87.712 31.0729 85.156 33.4569 85.156 36.7435C85.156 40.0089 87.712 42.4142 90.848 42.4142C93.984 42.4142 96.54 40.0089 96.54 36.7435C96.54 33.4569 93.984 31.0729 90.848 31.0729Z" fill="white"/>
<path d="M58.432 18.7441H55.768V10.1114H58.5501C59.3875 10.1114 60.1041 10.2842 60.6998 10.6299C61.2956 10.9727 61.7522 11.4659 62.0697 12.1094C62.3873 12.7501 62.5461 13.5173 62.5461 14.4109C62.5461 15.3102 62.3859 16.0844 62.0655 16.7335C61.7452 17.3798 61.2787 17.8772 60.6661 18.2257C60.0535 18.5713 59.3088 18.7441 58.432 18.7441ZM56.8134 17.8168H58.3646C59.0784 17.8168 59.6699 17.6791 60.1392 17.4037C60.6085 17.1283 60.9583 16.7363 61.1888 16.2277C61.4192 15.719 61.5344 15.1134 61.5344 14.4109C61.5344 13.714 61.4206 13.114 61.193 12.611C60.9654 12.1052 60.6253 11.7174 60.1729 11.4476C59.7205 11.175 59.157 11.0388 58.4826 11.0388H56.8134V17.8168ZM64.2996 18.7441V10.1114H69.5096V11.0388H65.345V13.9557H69.2398V14.883H65.345V17.8168H69.577V18.7441H64.2996ZM76.1148 12.2696C76.0642 11.8425 75.8591 11.5109 75.4994 11.2748C75.1397 11.0388 74.6985 10.9207 74.1758 10.9207C73.7936 10.9207 73.4592 10.9826 73.1726 11.1062C72.8888 11.2298 72.6668 11.3999 72.5066 11.6162C72.3492 11.8326 72.2705 12.0785 72.2705 12.3539C72.2705 12.5843 72.3253 12.7824 72.4349 12.9482C72.5473 13.1112 72.6906 13.2475 72.8649 13.3571C73.0391 13.4639 73.2218 13.5524 73.4128 13.6227C73.6039 13.6901 73.7796 13.7449 73.9397 13.7871L74.8165 14.0231C75.0413 14.0821 75.2914 14.1636 75.5668 14.2676C75.845 14.3716 76.1106 14.5135 76.3635 14.6933C76.6192 14.8704 76.83 15.098 76.9958 15.3762C77.1616 15.6544 77.2445 15.9958 77.2445 16.4005C77.2445 16.867 77.1222 17.2885 76.8777 17.665C76.6361 18.0416 76.282 18.3409 75.8155 18.5629C75.3518 18.7849 74.7884 18.8959 74.1252 18.8959C73.507 18.8959 72.9717 18.7961 72.5192 18.5966C72.0696 18.3971 71.7155 18.1189 71.457 17.762C71.2013 17.4051 71.0566 16.9906 71.0228 16.5185H72.1019C72.13 16.8445 72.2396 17.1143 72.4307 17.3278C72.6246 17.5386 72.8691 17.696 73.1642 17.7999C73.462 17.9011 73.7824 17.9517 74.1252 17.9517C74.5243 17.9517 74.8825 17.8871 75.2001 17.7578C75.5176 17.6257 75.7691 17.443 75.9546 17.2098C76.1401 16.9738 76.2328 16.6984 76.2328 16.3836C76.2328 16.097 76.1527 15.8638 75.9925 15.6839C75.8324 15.5041 75.6216 15.3579 75.3603 15.2455C75.0989 15.1331 74.8165 15.0348 74.513 14.9505L73.4508 14.647C72.7764 14.4531 72.2424 14.1763 71.849 13.8166C71.4556 13.4569 71.2589 12.9862 71.2589 12.4045C71.2589 11.9211 71.3896 11.4996 71.6509 11.1399C71.915 10.7774 72.2691 10.4964 72.7131 10.2969C73.1599 10.0946 73.6587 9.99339 74.2095 9.99339C74.7659 9.99339 75.2605 10.0931 75.6933 10.2927C76.126 10.4894 76.4689 10.7591 76.7218 11.102C76.9775 11.4448 77.1124 11.834 77.1264 12.2696H76.1148ZM85.9099 12.8091H84.8645C84.8027 12.5085 84.6945 12.2443 84.5399 12.0167C84.3882 11.7891 84.2027 11.598 83.9835 11.4434C83.7671 11.286 83.5269 11.168 83.2627 11.0893C82.9986 11.0107 82.7232 10.9713 82.4365 10.9713C81.9139 10.9713 81.4403 11.1034 81.016 11.3675C80.5945 11.6317 80.2587 12.0209 80.0086 12.5352C79.7613 13.0494 79.6376 13.6803 79.6376 14.4278C79.6376 15.1753 79.7613 15.8061 80.0086 16.3204C80.2587 16.8347 80.5945 17.2239 81.016 17.488C81.4403 17.7522 81.9139 17.8842 82.4365 17.8842C82.7232 17.8842 82.9986 17.8449 83.2627 17.7662C83.5269 17.6875 83.7671 17.5709 83.9835 17.4164C84.2027 17.259 84.3882 17.0665 84.5399 16.8389C84.6945 16.6084 84.8027 16.3443 84.8645 16.0464H85.9099C85.8312 16.4876 85.6879 16.8824 85.4799 17.2309C85.272 17.5793 85.0134 17.8758 84.7043 18.1203C84.3952 18.362 84.0481 18.546 83.6632 18.6725C83.281 18.7989 82.8721 18.8622 82.4365 18.8622C81.7003 18.8622 81.0455 18.6823 80.4723 18.3226C79.899 17.9629 79.448 17.4515 79.1192 16.7883C78.7904 16.1251 78.626 15.3383 78.626 14.4278C78.626 13.5173 78.7904 12.7305 79.1192 12.0673C79.448 11.4041 79.899 10.8926 80.4723 10.5329C81.0455 10.1732 81.7003 9.99339 82.4365 9.99339C82.8721 9.99339 83.281 10.0566 83.6632 10.1831C84.0481 10.3095 84.3952 10.495 84.7043 10.7395C85.0134 10.9811 85.272 11.2762 85.4799 11.6247C85.6879 11.9703 85.8312 12.3651 85.9099 12.8091ZM87.9532 18.7441H86.8572L90.0271 10.1114H91.1061L94.276 18.7441H93.18L90.6003 11.4771H90.5329L87.9532 18.7441ZM88.3578 15.372H92.7754V16.2993H88.3578V15.372ZM95.6206 18.7441V10.1114H98.5375C99.212 10.1114 99.7656 10.2266 100.198 10.4571C100.631 10.6847 100.951 10.998 101.159 11.397C101.367 11.7961 101.471 12.2499 101.471 12.7586C101.471 13.2672 101.367 13.7182 101.159 14.1116C100.951 14.5051 100.632 14.8142 100.203 15.039C99.7726 15.261 99.2232 15.372 98.5544 15.372H96.1939V14.4278H98.5207C98.9815 14.4278 99.3525 14.3603 99.6335 14.2254C99.9173 14.0906 100.122 13.8995 100.249 13.6522C100.378 13.4021 100.443 13.1042 100.443 12.7586C100.443 12.4129 100.378 12.1108 100.249 11.8523C100.12 11.5938 99.9131 11.3942 99.6293 11.2537C99.3455 11.1104 98.9703 11.0388 98.5038 11.0388H96.666V18.7441H95.6206ZM99.6841 14.8662L101.809 18.7441H100.595L98.5038 14.8662H99.6841ZM109.115 12.8091C109.022 12.5253 108.9 12.271 108.748 12.0462C108.599 11.8186 108.42 11.6247 108.212 11.4645C108.007 11.3043 107.774 11.1821 107.513 11.0978C107.251 11.0135 106.965 10.9713 106.653 10.9713C106.141 10.9713 105.676 11.1034 105.258 11.3675C104.839 11.6317 104.506 12.0209 104.259 12.5352C104.011 13.0494 103.888 13.6803 103.888 14.4278C103.888 15.1753 104.013 15.8061 104.263 16.3204C104.513 16.8347 104.852 17.2239 105.279 17.488C105.706 17.7522 106.186 17.8842 106.72 17.8842C107.215 17.8842 107.65 17.7789 108.027 17.5681C108.406 17.3545 108.701 17.0538 108.912 16.666C109.126 16.2754 109.233 15.816 109.233 15.2877L109.553 15.3551H106.956V14.4278H110.244V15.3551C110.244 16.0661 110.092 16.6843 109.789 17.2098C109.488 17.7353 109.072 18.1428 108.541 18.4322C108.013 18.7188 107.406 18.8622 106.72 18.8622C105.956 18.8622 105.284 18.6823 104.705 18.3226C104.129 17.9629 103.68 17.4515 103.357 16.7883C103.036 16.1251 102.876 15.3383 102.876 14.4278C102.876 13.7449 102.967 13.1309 103.15 12.5857C103.335 12.0378 103.597 11.5713 103.934 11.1863C104.271 10.8013 104.67 10.5062 105.131 10.3011C105.592 10.096 106.099 9.99339 106.653 9.99339C107.108 9.99339 107.532 10.0622 107.926 10.1999C108.322 10.3348 108.675 10.5273 108.984 10.7774C109.296 11.0247 109.556 11.3212 109.764 11.6668C109.972 12.0097 110.115 12.3904 110.194 12.8091H109.115ZM112.122 18.7441H111.026L114.196 10.1114H115.275L118.445 18.7441H117.349L114.769 11.4771H114.702L112.122 18.7441ZM112.527 15.372H116.944V16.2993H112.527V15.372ZM119.79 18.7441V10.1114H122.706C123.381 10.1114 123.934 10.2266 124.367 10.4571C124.8 10.6847 125.12 10.998 125.328 11.397C125.536 11.7961 125.64 12.2499 125.64 12.7586C125.64 13.2672 125.536 13.7182 125.328 14.1116C125.12 14.5051 124.801 14.8142 124.371 15.039C123.941 15.261 123.392 15.372 122.723 15.372H120.363V14.4278H122.69C123.15 14.4278 123.521 14.3603 123.802 14.2254C124.086 14.0906 124.291 13.8995 124.418 13.6522C124.547 13.4021 124.612 13.1042 124.612 12.7586C124.612 12.4129 124.547 12.1108 124.418 11.8523C124.289 11.5938 124.082 11.3942 123.798 11.2537C123.514 11.1104 123.139 11.0388 122.673 11.0388H120.835V18.7441H119.79ZM123.853 14.8662L125.977 18.7441H124.763L122.673 14.8662H123.853ZM130.721 18.7441V10.1114H135.931V11.0388H131.766V13.9557H135.661V14.883H131.766V17.8168H135.998V18.7441H130.721ZM144.66 10.1114V18.7441H143.649L138.944 11.9661H138.86V18.7441H137.815V10.1114H138.826L143.547 16.9063H143.632V10.1114H144.66Z" fill="white"/>
<path d="M27.6218 28.4483L13.4258 43.5149C13.4271 43.5176 13.4271 43.5216 13.4284 43.5243C13.8644 45.1603 15.3578 46.3643 17.1311 46.3643C17.8404 46.3643 18.5058 46.1723 19.0764 45.8363L19.1218 45.8096L35.1004 36.5896L27.6218 28.4483Z" fill="#EA4335"/>
<path d="M41.9828 25.8826L41.9695 25.8732L35.0708 21.8746L27.2988 28.7906L35.0988 36.5879L41.9602 32.6292C43.1628 31.9786 43.9802 30.7106 43.9802 29.2492C43.9802 27.7959 43.1748 26.5346 41.9828 25.8826Z" fill="#FBBC04"/>
<path d="M13.4256 14.9186C13.3403 15.2333 13.2949 15.564 13.2949 15.9053V42.5293C13.2949 42.8706 13.3403 43.2013 13.4269 43.5146L28.1096 28.8333L13.4256 14.9186Z" fill="#4285F4"/>
<path d="M27.7271 29.2168L35.0738 21.8715L19.1138 12.6181C18.5338 12.2701 17.8564 12.0701 17.1324 12.0701C15.3591 12.0701 13.8631 13.2768 13.4271 14.9141L13.4258 14.9181L27.7271 29.2168Z" fill="#34A853"/>
</svg>
