<svg width="796" height="731" viewBox="0 0 796 731" fill="none" xmlns="http://www.w3.org/2000/svg">
<path fill-rule="evenodd" clip-rule="evenodd" d="M795.85 729.29C795.85 729.294 795.86 729.297 795 729.784C794.14 730.272 794.14 730.271 794.14 730.267L794.13 730.252L794.09 730.19C794.06 730.135 794 730.052 793.93 729.942C793.79 729.721 793.57 729.392 793.29 728.957C792.72 728.086 791.86 726.794 790.72 725.105C788.45 721.73 785.04 716.776 780.53 710.47C771.5 697.858 758.05 679.835 740.33 658.205C704.91 614.945 652.47 557.265 584.42 499.585C448.29 384.22 249.77 268.926 0.000183105 268.926V267.037C250.45 267.037 449.43 382.644 585.75 498.18C653.92 555.952 706.44 613.722 741.92 657.05C759.66 678.714 773.14 696.77 782.19 709.412C786.71 715.734 790.12 720.701 792.41 724.091C793.55 725.785 794.41 727.085 794.99 727.963C795.28 728.401 795.49 728.733 795.64 728.957C795.71 729.069 795.76 729.154 795.8 729.21L795.84 729.274L795.85 729.29ZM795.76 590.343C795.76 590.346 795.76 590.347 795 590.96C794.24 591.572 794.24 591.571 794.24 591.569L794.23 591.559L794.19 591.515L794.12 591.439L794.03 591.341C793.97 591.274 793.89 591.193 793.81 591.099L793.67 590.948C793.58 590.856 793.49 590.755 793.39 590.645C792.82 590.03 791.96 589.116 790.82 587.922C788.55 585.536 785.15 582.032 780.63 577.572C771.61 568.651 758.16 555.902 740.45 540.601C705.03 509.998 652.6 469.189 584.55 428.379C448.44 346.759 249.87 265.148 0.000183105 265.148V263.259C250.35 263.259 449.28 345.027 585.62 426.785C653.79 467.663 706.31 508.544 741.8 539.208C759.54 554.54 773.03 567.318 782.08 576.267C786.61 580.742 790.02 584.259 792.31 586.658C793.45 587.859 794.32 588.779 794.89 589.401C795.18 589.712 795.4 589.948 795.54 590.106C795.61 590.186 795.67 590.245 795.7 590.286L795.75 590.331L795.76 590.343ZM795 494.633C795.64 493.911 795.64 493.909 795.64 493.907L795.63 493.898L795.59 493.865L795.48 493.78L795.42 493.737C795.28 493.623 795.06 493.454 794.77 493.231C794.2 492.785 793.33 492.125 792.19 491.264C789.9 489.543 786.48 487.021 781.96 483.814C772.9 477.399 759.42 468.238 741.67 457.249C706.19 435.268 653.66 405.968 585.5 376.67C449.17 318.073 250.28 259.482 0.000183105 259.482V261.371C249.94 261.371 448.55 319.883 584.67 378.389C652.73 407.642 705.16 436.894 740.58 458.828C758.28 469.795 771.73 478.932 780.76 485.324C785.27 488.521 788.67 491.031 790.94 492.741C792.08 493.596 792.94 494.252 793.51 494.692C793.63 494.786 793.74 494.871 793.83 494.946C793.96 495.045 794.06 495.126 794.15 495.19C794.22 495.245 794.27 495.288 794.3 495.315L794.34 495.346L794.35 495.354C794.35 495.354 794.35 495.355 794.37 495.333C794.38 495.322 794.4 495.307 794.42 495.285C794.46 495.243 794.51 495.177 794.61 495.07L795 494.633ZM795.43 388.953C795.43 388.953 795.43 388.953 795.43 388.955C795.43 388.957 795.43 388.96 795.42 388.969C795.41 388.985 795.4 389.017 795.36 389.083C795.31 389.197 795.2 389.409 795 389.807C794.8 390.192 794.7 390.402 794.64 390.518C794.61 390.572 794.59 390.605 794.58 390.625C794.57 390.645 794.57 390.653 794.57 390.656C794.57 390.657 794.57 390.657 794.57 390.657L794.56 390.653L794.52 390.635L794.36 390.564C794.22 390.501 794 390.406 793.72 390.281C793.15 390.03 792.29 389.657 791.15 389.171C788.88 388.199 785.48 386.771 780.96 384.953C771.94 381.318 758.49 376.122 740.78 369.886C705.35 357.412 652.91 340.778 584.83 324.142C448.68 290.87 250.02 257.593 0.000183105 257.593V255.704C250.21 255.704 449.04 289.006 585.33 322.313C653.48 338.967 705.99 355.622 741.47 368.116C759.22 374.363 772.7 379.569 781.75 383.216C786.27 385.039 789.69 386.473 791.98 387.45C793.12 387.94 793.98 388.315 794.56 388.568C794.85 388.695 795.07 388.791 795.21 388.856L795.38 388.929L795.42 388.948L795.43 388.953ZM795 305.757C795.14 305.081 795.17 304.897 795.18 304.847C795.18 304.828 795.18 304.828 795.18 304.828L795.17 304.826L795.13 304.819L794.97 304.789C794.82 304.764 794.61 304.726 794.32 304.676L794.05 304.629L793.72 304.571C793.54 304.54 793.34 304.505 793.12 304.468C792.72 304.399 792.26 304.321 791.74 304.233C789.46 303.845 786.05 303.277 781.52 302.553C772.48 301.105 759 299.039 741.27 296.559C705.81 291.599 653.31 284.987 585.19 278.374C448.93 265.15 250.15 251.927 0.000183105 251.927V253.815C250.08 253.815 448.79 267.035 584.98 280.253C653.08 286.862 705.54 293.471 740.98 298.427C758.7 300.905 772.16 302.97 781.19 304.415C785.7 305.138 789.11 305.706 791.39 306.092C792.53 306.285 793.39 306.434 793.96 306.534C794.24 306.583 794.46 306.621 794.6 306.646L794.76 306.674L794.8 306.682L794.81 306.684C794.81 306.684 794.81 306.684 794.82 306.666C794.82 306.648 794.83 306.614 794.84 306.547L794.87 306.398C794.9 306.261 794.94 306.057 795 305.757ZM794.99 254.76C794.99 254.76 794.99 254.76 795 253.815C795.01 252.871 795.01 252.871 795 252.871H794.99H794.98L794.95 252.87H794.92H794.89H794.84L794.79 252.869H794.73L794.67 252.868H794.6L794.52 252.867H794.44L794.35 252.866L794.25 252.865L794.15 252.865H794.04L793.92 252.864L793.79 252.863L793.66 252.862L793.53 252.861L793.38 252.86L793.23 252.858L793.07 252.857L792.91 252.856L792.74 252.855L792.56 252.853L792.38 252.852L792.19 252.851L791.99 252.849L791.79 252.848L791.57 252.847L791.36 252.845L791.13 252.844L790.9 252.842L790.67 252.84L790.42 252.838L790.17 252.836L789.92 252.834L789.65 252.832L789.38 252.831L789.11 252.829L788.82 252.827L788.53 252.825L788.24 252.823L787.93 252.821L787.62 252.818L787.31 252.816L786.99 252.813L786.66 252.812L786.32 252.809L785.98 252.807L785.63 252.804L785.28 252.801L784.91 252.799L784.55 252.796L784.17 252.794L783.79 252.791L783.4 252.788L783.01 252.785L782.61 252.782L782.2 252.78L781.78 252.777L781.36 252.774L780.94 252.771L780.5 252.767L780.06 252.764L779.62 252.762L779.17 252.758L778.71 252.755L778.24 252.751L777.77 252.748L777.29 252.745L776.8 252.741L776.31 252.738L775.81 252.734L775.31 252.73L774.8 252.727L774.28 252.723L773.76 252.72L773.23 252.716L772.69 252.711L772.15 252.708L771.6 252.704L771.04 252.7L770.48 252.696L769.91 252.692L769.34 252.688L768.76 252.684L768.17 252.679L767.57 252.676L766.97 252.671L766.37 252.667L765.75 252.662L765.13 252.658L764.51 252.654L763.87 252.649L763.24 252.644L762.59 252.64L761.94 252.635L761.28 252.63L760.62 252.626L759.95 252.621L759.27 252.616L758.59 252.611L757.9 252.607L757.2 252.602L756.5 252.596L755.79 252.592L755.07 252.586L754.35 252.581L753.63 252.576L752.89 252.571L752.15 252.565L751.41 252.56L750.65 252.555L749.89 252.549L749.13 252.544L748.36 252.539L747.58 252.533L746.8 252.527L746.01 252.522L745.21 252.516L744.41 252.51L743.6 252.505L742.78 252.499L741.96 252.493L741.13 252.487L740.3 252.481L739.46 252.475L738.61 252.469L737.76 252.463L736.9 252.457L736.04 252.451L735.16 252.444L734.29 252.439L733.4 252.432L732.51 252.425L731.62 252.419L730.71 252.413L729.81 252.406L728.89 252.4L727.97 252.393L727.04 252.387L726.11 252.38L725.17 252.373L724.22 252.367L723.27 252.359L722.32 252.353L721.35 252.346L720.38 252.339L719.4 252.332L718.42 252.325L717.43 252.318L716.44 252.311L715.44 252.304L714.43 252.297L713.42 252.289L712.4 252.282L711.37 252.275L710.34 252.268L709.3 252.26L708.26 252.253L707.21 252.245L706.16 252.237L705.09 252.23L704.03 252.222L702.95 252.215L701.87 252.207L700.78 252.2L699.69 252.192L698.59 252.184L697.49 252.176L696.38 252.168L695.26 252.16L694.14 252.152L693.01 252.144L691.88 252.136L690.74 252.128L689.59 252.119L688.44 252.112L687.28 252.103L686.11 252.095L684.94 252.086L683.77 252.078L682.58 252.069L681.39 252.061L680.2 252.052L679 252.044L677.79 252.035L676.58 252.027L675.36 252.018L674.13 252.01L672.9 252L671.67 251.992L670.42 251.983L669.18 251.974L667.92 251.965L666.66 251.956L665.39 251.948L664.12 251.938L662.84 251.929L661.56 251.92L660.27 251.911L658.97 251.901L657.67 251.892L656.36 251.882L655.05 251.874L653.73 251.864L652.4 251.855L651.07 251.845L649.73 251.835L648.39 251.826L647.04 251.816L645.68 251.807L644.32 251.797L642.96 251.787L641.58 251.778L640.2 251.768L638.82 251.758L637.43 251.748L636.03 251.738L634.63 251.727L633.22 251.718L631.81 251.708L630.39 251.697L628.96 251.688L627.53 251.677L626.09 251.667L624.65 251.657L623.2 251.646L621.75 251.636L620.29 251.625L618.82 251.615L617.35 251.605L615.87 251.594L614.38 251.584L612.89 251.573L611.4 251.562L609.9 251.552L608.39 251.54L606.88 251.53L605.36 251.52L603.83 251.508L602.3 251.498L600.77 251.487L599.23 251.475L597.68 251.465L596.13 251.454L594.57 251.442L593 251.431L591.43 251.42L589.86 251.409L588.27 251.398L586.69 251.387L585.09 251.375L583.49 251.364L581.89 251.352L580.28 251.34L578.66 251.329L577.04 251.318L575.41 251.306L573.78 251.294L572.14 251.283L570.49 251.27L568.84 251.259L567.19 251.247L565.52 251.235L563.86 251.223L562.18 251.212L560.5 251.2L558.82 251.187L557.13 251.176L555.43 251.164L553.73 251.151L552.03 251.139L550.31 251.127L548.59 251.115L546.87 251.102L545.14 251.09L543.4 251.078L541.66 251.065L539.92 251.053L538.16 251.04L536.41 251.028L534.64 251.015L532.87 251.003L531.1 250.99L529.32 250.978L527.53 250.964L525.74 250.952L523.94 250.939L522.14 250.927L520.33 250.913L518.52 250.9L516.7 250.887L514.88 250.875L513.05 250.861L511.21 250.848L509.37 250.835L507.52 250.822L505.67 250.809L503.81 250.795L501.95 250.782L500.08 250.769L498.2 250.756L496.32 250.742L494.44 250.728L492.54 250.715L490.65 250.702L488.74 250.688L486.84 250.674L484.92 250.661L483 250.647L481.08 250.634L479.15 250.62L477.21 250.606L475.27 250.592L473.33 250.578L471.38 250.564L469.42 250.551L467.46 250.537L465.49 250.522L463.51 250.508L461.53 250.494L459.55 250.48L457.56 250.466L455.56 250.452L453.56 250.437L451.56 250.423L449.55 250.409L447.53 250.394L445.51 250.38L443.48 250.366L441.44 250.351L439.41 250.336L437.36 250.322L435.31 250.307L433.26 250.293L431.2 250.278L429.13 250.264L427.06 250.249L424.98 250.233L422.9 250.219L420.81 250.204L418.72 250.189L416.62 250.174L414.52 250.159L412.41 250.144L410.3 250.129L408.18 250.113L406.05 250.098L403.92 250.083L401.79 250.068L399.65 250.053L397.5 250.038L395.35 250.023L393.19 250.007L391.03 249.992L388.86 249.977L386.69 249.961L384.51 249.945L382.33 249.929L380.14 249.914L377.94 249.898L375.75 249.883L373.54 249.867L371.33 249.851L369.12 249.836L366.9 249.82L364.67 249.804L362.44 249.788L360.2 249.772L357.96 249.756L355.71 249.74L353.46 249.723L351.21 249.707L348.94 249.691L346.68 249.675L344.4 249.659L342.12 249.643L339.84 249.627L337.55 249.61L335.26 249.594L332.96 249.578L330.66 249.561L328.35 249.545L326.03 249.528L323.71 249.512L321.39 249.495L319.06 249.479L316.72 249.462L314.38 249.445L312.03 249.429L309.68 249.412L307.33 249.395L304.97 249.378L302.6 249.362L300.23 249.345L297.85 249.328L295.47 249.311L293.08 249.294L290.69 249.277L288.29 249.26L285.89 249.243L283.48 249.225L281.07 249.208L278.65 249.191L276.23 249.174L273.8 249.156L271.37 249.139L268.93 249.121L266.49 249.104L264.04 249.087L261.59 249.069L259.13 249.052L256.66 249.034L254.19 249.016L251.72 248.999L249.24 248.981L246.76 248.963L244.27 248.945L241.77 248.928L239.28 248.91L236.77 248.892L234.26 248.874L231.75 248.857L229.23 248.839L226.7 248.821L224.17 248.803L221.64 248.785L219.1 248.766L216.56 248.748L214.01 248.73L211.45 248.712L208.89 248.693L206.33 248.675L203.757 248.657L201.182 248.638L198.603 248.62L196.018 248.602L193.429 248.584L190.834 248.565L188.235 248.546L185.63 248.528L183.021 248.509L180.406 248.49L177.787 248.472L175.162 248.453L172.533 248.434L169.899 248.416L167.26 248.397L164.616 248.378L161.967 248.359L159.312 248.34L156.654 248.321L153.99 248.302L151.321 248.283L148.647 248.264L145.969 248.245L143.285 248.226L140.597 248.207L137.903 248.188L135.205 248.168L132.502 248.149L129.794 248.129L127.081 248.11L124.363 248.091L121.64 248.072L118.913 248.052L116.18 248.033L113.443 248.013L110.701 247.993L107.954 247.974L105.202 247.955L102.445 247.935L99.6842 247.915L96.9172 247.895L94.1462 247.875L91.3702 247.855L88.5892 247.836L85.8042 247.816L83.0132 247.796L80.2182 247.776L77.4172 247.756L74.6122 247.736L71.8032 247.717L68.9882 247.696L66.1692 247.676L63.3442 247.656L60.5152 247.636L57.6822 247.616L54.8432 247.596L52.0002 247.575L49.1522 247.555L46.2992 247.534L43.4412 247.515L40.5792 247.494L37.7122 247.473L34.8402 247.453L31.9632 247.432L29.0822 247.412L26.1952 247.392L23.3052 247.371L20.4092 247.35L17.5092 247.329L14.6042 247.309L11.6942 247.288L8.77917 247.267L5.86017 247.246L2.93616 247.226L0.00720215 247.205L-0.0078125 249.094L2.9212 249.114L5.84515 249.135L8.76416 249.156L11.6792 249.177L14.5882 249.197L17.4932 249.218L20.3942 249.239L23.2892 249.26L26.1802 249.28L29.0672 249.3L31.9482 249.321L34.8252 249.342L37.6972 249.362L40.5642 249.383L43.4262 249.403L46.2842 249.423L49.1372 249.444L51.9852 249.464L54.8282 249.485L57.6672 249.504L60.5002 249.524L63.3292 249.545L66.1542 249.565L68.9732 249.585L71.7882 249.605L74.5972 249.625L77.4022 249.645L80.2032 249.665L82.9982 249.685L85.7882 249.705L88.5742 249.724L91.3552 249.744L94.1312 249.764L96.9022 249.784L99.6692 249.804L102.43 249.824L105.187 249.843L107.939 249.863L110.686 249.882L113.428 249.902L116.165 249.922L118.898 249.941L121.625 249.961L124.348 249.979L127.066 249.999L129.779 250.018L132.487 250.038L135.19 250.057L137.888 250.077L140.581 250.096L143.27 250.114L145.953 250.133L148.632 250.153L151.306 250.172L153.975 250.191L156.638 250.21L159.297 250.229L161.951 250.248L164.6 250.267L167.245 250.285L169.884 250.304L172.518 250.323L175.147 250.342L177.772 250.361L180.391 250.379L183.006 250.398L185.615 250.417L188.22 250.435L190.819 250.453L193.414 250.472L196.003 250.49L198.588 250.509L201.167 250.527L203.742 250.546L206.31 250.564L208.88 250.582L211.44 250.601L213.99 250.619L216.54 250.637L219.08 250.655L221.62 250.674L224.16 250.691L226.69 250.709L229.21 250.727L231.73 250.745L234.25 250.763L236.76 250.781L239.26 250.799L241.76 250.816L244.25 250.834L246.74 250.852L249.23 250.87L251.71 250.888L254.18 250.905L256.65 250.923L259.11 250.94L261.57 250.958L264.02 250.976L266.47 250.993L268.92 251.01L271.35 251.028L273.79 251.045L276.21 251.063L278.64 251.08L281.06 251.097L283.47 251.114L285.88 251.131L288.28 251.149L290.68 251.166L293.07 251.183L295.45 251.2L297.84 251.217L300.21 251.234L302.58 251.251L304.95 251.267L307.31 251.284L309.67 251.301L312.02 251.318L314.37 251.334L316.71 251.351L319.04 251.368L321.37 251.384L323.7 251.401L326.02 251.417L328.33 251.434L330.64 251.45L332.94 251.467L335.24 251.483L337.54 251.499L339.83 251.516L342.11 251.532L344.39 251.548L346.66 251.564L348.93 251.58L351.19 251.596L353.45 251.612L355.7 251.628L357.95 251.644L360.19 251.66L362.42 251.676L364.65 251.693L366.88 251.709L369.1 251.725L371.32 251.74L373.53 251.756L375.73 251.772L377.93 251.787L380.12 251.803L382.31 251.818L384.5 251.834L386.67 251.849L388.85 251.865L391.01 251.88L393.18 251.896L395.33 251.912L397.48 251.927L399.63 251.942L401.77 251.957L403.91 251.972L406.04 251.987L408.16 252.002L410.28 252.017L412.4 252.033L414.5 252.048L416.61 252.063L418.71 252.078L420.8 252.093L422.89 252.107L424.97 252.122L427.04 252.137L429.12 252.151L431.18 252.167L433.24 252.182L435.3 252.196L437.35 252.211L439.39 252.225L441.43 252.239L443.46 252.254L445.49 252.269L447.51 252.283L449.53 252.298L451.54 252.312L453.55 252.326L455.55 252.34L457.55 252.355L459.54 252.369L461.52 252.383L463.5 252.397L465.47 252.411L467.44 252.425L469.4 252.44L471.36 252.453L473.31 252.467L475.26 252.481L477.2 252.494L479.14 252.508L481.07 252.523L482.99 252.536L484.91 252.55L486.82 252.563L488.73 252.576L490.63 252.591L492.53 252.604L494.42 252.617L496.31 252.631L498.19 252.644L500.06 252.658L501.93 252.671L503.79 252.684L505.65 252.697L507.51 252.711L509.35 252.724L511.19 252.737L513.03 252.75L514.86 252.763L516.69 252.776L518.5 252.789L520.32 252.802L522.13 252.814L523.93 252.828L525.73 252.841L527.52 252.853L529.3 252.866L531.08 252.879L532.86 252.891L534.63 252.904L536.39 252.916L538.15 252.929L539.9 252.942L541.65 252.954L543.39 252.966L545.12 252.979L546.85 252.991L548.58 253.003L550.3 253.016L552.01 253.028L553.72 253.04L555.42 253.052L557.11 253.065L558.81 253.076L560.49 253.088L562.17 253.101L563.84 253.112L565.51 253.124L567.17 253.136L568.83 253.148L570.48 253.159L572.12 253.171L573.76 253.183L575.4 253.194L577.02 253.206L578.65 253.218L580.26 253.229L581.87 253.24L583.48 253.252L585.08 253.264L586.67 253.275L588.26 253.287L589.84 253.298L591.42 253.308L592.99 253.32L594.55 253.331L596.11 253.342L597.66 253.354L599.21 253.364L600.75 253.375L602.29 253.386L603.82 253.397L605.34 253.408L606.86 253.419L608.38 253.429L609.88 253.441L611.38 253.451L612.88 253.461L614.37 253.473L615.85 253.483L617.33 253.493L618.8 253.504L620.27 253.514L621.73 253.525L623.19 253.535L624.64 253.545L626.08 253.556L627.52 253.566L628.95 253.577L630.37 253.586L631.79 253.596L633.21 253.607L634.62 253.616L636.02 253.627L637.41 253.637L638.8 253.646L640.19 253.656L641.57 253.666L642.94 253.676L644.31 253.686L645.67 253.696L647.02 253.705L648.37 253.714L649.72 253.724L651.06 253.734L652.39 253.744L653.71 253.753L655.03 253.763L656.35 253.771L657.66 253.781L658.96 253.79L660.25 253.799L661.54 253.809L662.83 253.817L664.11 253.827L665.38 253.836L666.65 253.845L667.91 253.854L669.16 253.863L670.41 253.872L671.65 253.881L672.89 253.889L674.12 253.899L675.34 253.907L676.56 253.916L677.78 253.924L678.98 253.933L680.18 253.941L681.38 253.95L682.57 253.958L683.75 253.967L684.93 253.975L686.1 253.984L687.26 253.992L688.42 254.001L689.57 254.008L690.72 254.017L691.86 254.024L693 254.033L694.13 254.041L695.25 254.049L696.36 254.056L697.47 254.065L698.58 254.072L699.68 254.08L700.77 254.088L701.86 254.096L702.94 254.104L704.01 254.111L705.08 254.119L706.14 254.126L707.2 254.134L708.25 254.141L709.29 254.149L710.33 254.156L711.36 254.164L712.38 254.171L713.4 254.178L714.42 254.186L715.42 254.192L716.42 254.2L717.42 254.206L718.41 254.214L719.39 254.221L720.37 254.228L721.34 254.235L722.3 254.241L723.26 254.248L724.21 254.256L725.16 254.262L726.09 254.269L727.03 254.275L727.96 254.282L728.88 254.289L729.79 254.295L730.7 254.302L731.6 254.307L732.5 254.314L733.39 254.321L734.27 254.327L735.15 254.333L736.02 254.34L736.89 254.345L737.74 254.352L738.6 254.358L739.44 254.364L740.28 254.37L741.12 254.375L741.95 254.381L742.77 254.388L743.58 254.393L744.39 254.399L745.19 254.405L745.99 254.41L746.78 254.416L747.56 254.422L748.34 254.427L749.11 254.433L749.88 254.438L750.64 254.444L751.39 254.449L752.14 254.454L752.88 254.46L753.61 254.465L754.34 254.47L755.06 254.475L755.77 254.48L756.48 254.485L757.19 254.49L757.88 254.495L758.57 254.5L759.25 254.505L759.93 254.51L760.6 254.514L761.27 254.519L761.92 254.524L762.58 254.529L763.22 254.533L763.86 254.538L764.49 254.543L765.12 254.546L765.74 254.551L766.35 254.556L766.96 254.56L767.56 254.564L768.15 254.568L768.74 254.573L769.32 254.577L769.9 254.58L770.47 254.585L771.03 254.589L771.58 254.593L772.13 254.596L772.68 254.6L773.21 254.604L773.74 254.608L774.27 254.612L774.78 254.615L775.29 254.619L775.8 254.623L776.3 254.627L776.79 254.63L777.27 254.633L777.75 254.637L778.22 254.64L778.69 254.644L779.15 254.647L779.6 254.65L780.05 254.653L780.49 254.656L780.92 254.66L781.35 254.663L781.77 254.665L782.18 254.668L782.59 254.671L782.99 254.674L783.39 254.677L783.77 254.68L784.16 254.682L784.53 254.685L784.9 254.688L785.26 254.69L785.62 254.693L785.96 254.696L786.31 254.698L786.64 254.7L786.97 254.702L787.29 254.705L787.61 254.707L787.92 254.709L788.22 254.712L788.52 254.714L788.81 254.715L789.09 254.717L789.37 254.719L789.64 254.721L789.9 254.723L790.16 254.725L790.41 254.727L790.65 254.729L790.89 254.731L791.12 254.732L791.34 254.733L791.56 254.735L791.77 254.736L791.97 254.738L792.17 254.74L792.36 254.741L792.55 254.742L792.72 254.744L792.89 254.745L793.06 254.746L793.22 254.747L793.37 254.749L793.51 254.749L793.65 254.75L793.78 254.751L793.9 254.752H794.02L794.13 254.753L794.24 254.754L794.33 254.755L794.42 254.756H794.51L794.58 254.757H794.66L794.72 254.758H794.78L794.83 254.759H794.87H794.91H794.94L794.96 254.76H794.98H794.99ZM795 0.720947C795.64 1.44342 795.64 1.44434 795.64 1.44623L795.63 1.45471L795.59 1.48779L795.58 1.49628L795.49 1.56519L795.42 1.61713L795.3 1.7135L795.16 1.82208C795.05 1.90802 794.92 2.00812 794.77 2.12335C794.2 2.56909 793.33 3.22925 792.19 4.0896C789.9 5.81116 786.48 8.33173 781.96 11.5398C772.9 17.955 759.42 27.1155 741.67 38.1053C706.19 60.0858 653.66 89.3853 585.5 118.684C449.17 177.281 250.28 235.872 0.000183105 235.872V233.983C249.94 233.983 448.55 175.471 584.67 116.965C652.73 87.7109 705.16 58.4595 740.58 36.5262C758.28 25.5591 771.73 16.4222 780.76 10.0288C785.27 6.83301 788.67 4.32184 790.94 2.61255C792.08 1.7569 792.94 1.10248 793.51 0.662354C793.79 0.441406 794 0.275146 794.15 0.163757C794.2 0.119324 794.25 0.0834961 794.28 0.0570679L794.3 0.0391235L794.34 0.00793457L794.35 0.000366211C794.35 0.000366211 794.35 -0.000549316 794.4 0.0523071C794.47 0.125977 794.63 0.301636 795 0.720947ZM795.43 107.346C795.43 107.346 795.43 107.344 795 106.492C794.57 105.64 794.57 105.641 794.57 105.641L794.56 105.646L794.52 105.663L794.36 105.734C794.22 105.798 794 105.892 793.72 106.018C793.48 106.121 793.2 106.243 792.87 106.387C792.67 106.475 792.45 106.57 792.21 106.672C791.89 106.81 791.54 106.962 791.15 107.126C788.88 108.099 785.48 109.527 780.96 111.345C771.94 114.98 758.49 120.176 740.78 126.413C705.35 138.886 652.91 155.52 584.83 172.157C448.68 205.428 250.02 238.705 0.000183105 238.705V240.594C250.21 240.594 449.04 207.292 585.33 173.985C653.48 157.332 705.99 140.677 741.47 128.182C759.22 121.935 772.7 116.729 781.75 113.082C786.27 111.259 789.69 109.826 791.98 108.847C793.12 108.359 793.98 107.983 794.56 107.73C794.72 107.658 794.86 107.597 794.98 107.545C795.07 107.505 795.15 107.47 795.21 107.442L795.38 107.369L795.42 107.35L795.43 107.346ZM795 191.486C795.19 192.414 795.19 192.415 795.18 192.415L795.17 192.416L795.13 192.424L794.97 192.452C794.82 192.478 794.61 192.517 794.32 192.567C793.75 192.667 792.89 192.816 791.74 193.01C789.46 193.398 786.05 193.966 781.52 194.69C772.48 196.136 759 198.204 741.27 200.684C705.81 205.643 653.31 212.256 585.19 218.869C448.93 232.093 250.15 245.316 0.000183105 245.316V243.427C250.08 243.427 448.79 230.208 584.98 216.989C653.08 210.38 705.54 203.772 740.98 198.816C758.7 196.338 772.16 194.272 781.19 192.827C785.7 192.105 789.11 191.537 791.39 191.151C792.08 191.034 792.66 190.934 793.14 190.851C793.46 190.796 793.73 190.749 793.96 190.709C794.24 190.659 794.46 190.621 794.6 190.597L794.76 190.567L794.8 190.561L794.81 190.559C794.81 190.559 794.81 190.558 795 191.486Z" fill="url(#paint0_linear_34490_37)"/>
<defs>
<linearGradient id="paint0_linear_34490_37" x1="11.9992" y1="374.711" x2="780.42" y2="374.711" gradientUnits="userSpaceOnUse">
<stop offset="0.0182341" stop-color="#DEE2E6" stop-opacity="0"/>
<stop offset="0.127609" stop-color="#DEE2E6"/>
<stop offset="0.467451" stop-color="#DEE2E6" stop-opacity="0.65"/>
<stop offset="0.917969" stop-color="#DEE2E6" stop-opacity="0"/>
</linearGradient>
</defs>
</svg>
