<svg width="50" height="50" viewBox="0 0 50 50" fill="none" xmlns="http://www.w3.org/2000/svg">
<path d="M37.6578 3.2373L46.3516 12.2998V46.7623H13.875V46.8748H46.4625V12.4139L37.6578 3.2373Z" fill="#909090"/>
<path d="M37.5477 3.125H13.7617V46.7625H46.3492V12.3016L37.5477 3.125Z" fill="#F4F4F4"/>
<path d="M13.5234 5.46875H3.53906V16.1359H34.9453V5.46875H13.5234Z" fill="#7A7B7C"/>
<path d="M35.1105 15.9543H3.74023V5.2793H35.1105V15.9543Z" fill="#DD2025"/>
<path d="M14.1438 7.08515H12.1016V14.5851H13.7078V12.0555L14.0625 12.0758C14.4073 12.071 14.7489 12.0093 15.0734 11.893C15.3588 11.7961 15.621 11.6413 15.8438 11.4383C16.0721 11.2468 16.2516 11.0036 16.3672 10.7289C16.5254 10.2738 16.5814 9.78938 16.5313 9.31015C16.5223 8.96773 16.4623 8.62857 16.3531 8.3039C16.2547 8.06923 16.1084 7.85768 15.9236 7.68279C15.7388 7.5079 15.5194 7.37353 15.2797 7.28827C15.073 7.21172 14.8588 7.15725 14.6406 7.12577C14.4758 7.09894 14.3092 7.08535 14.1422 7.08515M13.8469 10.6695H13.7078V8.35702H14.0094C14.1425 8.34743 14.276 8.36786 14.4002 8.41681C14.5243 8.46576 14.6358 8.54198 14.7266 8.63984C14.9146 8.89142 15.015 9.19765 15.0125 9.51171C15.0125 9.89609 15.0125 10.2445 14.6656 10.4898C14.4158 10.6275 14.1313 10.6909 13.8469 10.6695ZM19.5828 7.06484C19.4094 7.06484 19.2406 7.07734 19.1219 7.08202L18.75 7.0914H17.5313V14.5914H18.9656C19.5137 14.6055 20.0593 14.5126 20.5719 14.318C20.9846 14.155 21.3498 13.8912 21.6344 13.5508C21.9132 13.2088 22.1123 12.809 22.2172 12.3805C22.3404 11.896 22.4003 11.3975 22.3953 10.8977C22.4259 10.3073 22.3802 9.71541 22.2594 9.13671C22.1437 8.71123 21.9296 8.3189 21.6344 7.9914C21.4028 7.72657 21.118 7.5136 20.7984 7.3664C20.5247 7.23952 20.2367 7.14614 19.9406 7.08827C19.8229 7.06897 19.7037 7.06009 19.5844 7.06171M19.3 13.2133H19.1438V8.42577H19.1641C19.4862 8.38853 19.8122 8.44666 20.1016 8.59296C20.3135 8.76222 20.4863 8.97546 20.6078 9.21796C20.739 9.47317 20.8146 9.75328 20.8297 10.0398C20.8438 10.3836 20.8297 10.6648 20.8297 10.8977C20.8355 11.1658 20.8182 11.434 20.7781 11.6992C20.729 11.9712 20.64 12.2344 20.5141 12.4805C20.3718 12.7099 20.1775 12.9026 19.9469 13.043C19.7542 13.168 19.5258 13.2262 19.2969 13.2086M27.2344 7.0914H23.4375V14.5914H25.0438V11.6164H27.075V10.2226H25.0438V8.48515H27.2313V7.0914" fill="#464648"/>
<path d="M34.034 31.6486C34.034 31.6486 39.0153 30.7455 39.0153 32.447C39.0153 34.1486 35.9294 33.4564 34.034 31.6486ZM30.3512 31.7783C29.5597 31.9527 28.7884 32.2088 28.0497 32.5424L28.6747 31.1361C29.2997 29.7299 29.9481 27.8127 29.9481 27.8127C30.692 29.0691 31.5599 30.2479 32.5387 31.3314C31.8019 31.4412 31.0716 31.5914 30.3512 31.7814V31.7783ZM28.3794 21.622C28.3794 20.1392 28.859 19.7345 29.2325 19.7345C29.6059 19.7345 30.0262 19.9142 30.0403 21.2017C29.9184 22.4963 29.6474 23.7725 29.2325 25.0049C28.6622 23.9709 28.3679 22.8075 28.3778 21.6267L28.3794 21.622ZM21.1153 38.0533C19.5872 37.1392 24.32 34.3252 25.1778 34.2345C25.1731 34.2361 22.7153 39.0095 21.1153 38.0533ZM40.47 32.6486C40.4543 32.4924 40.3137 30.7627 37.2356 30.8361C35.9525 30.8136 34.67 30.9041 33.4028 31.1064C32.1745 29.8701 31.1172 28.4749 30.259 26.958C30.7994 25.3944 31.1268 23.7652 31.2325 22.1142C31.1872 20.2392 30.7387 19.1642 29.3012 19.1799C27.8637 19.1955 27.6544 20.4533 27.8434 22.3252C28.0285 23.5831 28.3778 24.8113 28.8825 25.9783C28.8825 25.9783 28.2184 28.0455 27.3403 30.1017C26.4622 32.158 25.8622 33.2361 25.8622 33.2361C24.3349 33.7326 22.8974 34.4712 21.6044 35.4236C20.3169 36.622 19.7934 37.5424 20.4715 38.4627C21.0559 39.2564 23.1012 39.4361 24.9294 37.0408C25.899 35.8024 26.7863 34.5017 27.5856 33.147C27.5856 33.147 30.3731 32.383 31.2403 32.1736C32.1075 31.9642 33.1559 31.7986 33.1559 31.7986C33.1559 31.7986 35.7012 34.3595 38.1559 34.2689C40.6106 34.1783 40.4918 32.8017 40.4762 32.6517" fill="#DD2025"/>
<path d="M37.4277 3.24512V12.4217H46.2293L37.4277 3.24512Z" fill="#909090"/>
<path d="M37.5488 3.125V12.3016H46.3504L37.5488 3.125Z" fill="#F4F4F4"/>
<path d="M14.0246 6.96503H11.9824V14.465H13.5949V11.9369L13.9512 11.9572C14.2959 11.9525 14.6375 11.8907 14.9621 11.7744C15.2475 11.6775 15.5097 11.5227 15.7324 11.3197C15.9591 11.1277 16.1369 10.8846 16.2512 10.6103C16.4094 10.1552 16.4654 9.67082 16.4152 9.1916C16.4063 8.84918 16.3463 8.51001 16.2371 8.18535C16.1387 7.95067 15.9924 7.73912 15.8076 7.56424C15.6227 7.38935 15.4034 7.25498 15.1637 7.16972C14.956 7.09242 14.7408 7.03742 14.5215 7.00566C14.3567 6.97882 14.19 6.96524 14.023 6.96503M13.7277 10.5494H13.5887V8.23691H13.8918C14.0249 8.22731 14.1584 8.24774 14.2826 8.29669C14.4067 8.34564 14.5183 8.42186 14.609 8.51972C14.797 8.77131 14.8974 9.07754 14.8949 9.3916C14.8949 9.77597 14.8949 10.1244 14.548 10.3697C14.2982 10.5073 14.0137 10.5692 13.7293 10.5478M19.4637 6.94472C19.2902 6.94472 19.1215 6.95722 19.0027 6.96191L18.6355 6.97128H17.4168V14.4713H18.8512C19.3993 14.4854 19.9449 14.3925 20.4574 14.1978C20.8701 14.0349 21.2354 13.7711 21.5199 13.4307C21.7987 13.0887 21.9978 12.6889 22.1027 12.2603C22.226 11.7759 22.2858 11.2774 22.2809 10.7775C22.3114 10.1872 22.2658 9.59529 22.1449 9.0166C22.0292 8.59111 21.8152 8.19878 21.5199 7.87128C21.2884 7.60645 21.0035 7.39348 20.684 7.24628C20.4103 7.11941 20.1223 7.02602 19.8262 6.96816C19.7084 6.94886 19.5892 6.93997 19.4699 6.94159M19.1855 13.0932H19.0293V8.30566H19.0496C19.3717 8.26841 19.6977 8.32654 19.9871 8.47285C20.1991 8.64211 20.3718 8.85534 20.4934 9.09785C20.6245 9.35306 20.7002 9.63317 20.7152 9.91972C20.7293 10.2635 20.7152 10.5447 20.7152 10.7775C20.721 11.0457 20.7038 11.3139 20.6637 11.5791C20.6145 11.8511 20.5255 12.1143 20.3996 12.3603C20.2573 12.5898 20.063 12.7825 19.8324 12.9228C19.6398 13.0479 19.4114 13.106 19.1824 13.0885M27.1152 6.97128H23.3184V14.4713H24.9246V11.4963H26.9559V10.1025H24.9246V8.36503H27.1121V6.97128" fill="white"/>
</svg>
