<svg width="180" height="55" viewBox="0 0 180 55" fill="none" xmlns="http://www.w3.org/2000/svg">
<path d="M173.333 54.7852H6.66667C3 54.7852 0 51.7477 0 48.0352V7.53516C0 3.82265 3 0.785156 6.66667 0.785156H173.333C177 0.785156 180 3.82265 180 7.53516V48.0352C180 51.7477 177 54.7852 173.333 54.7852Z" fill="black"/>
<path d="M173.333 0.785156H6.66667C3 0.785156 0 3.82265 0 7.53516V48.0352C0 51.7477 3 54.7852 6.66667 54.7852H173.333C177 54.7852 180 51.7477 180 48.0352V7.53516C180 3.82265 177 0.785156 173.333 0.785156ZM173.333 1.86515C176.421 1.86515 178.933 4.40855 178.933 7.53516V48.0352C178.933 51.1618 176.421 53.7052 173.333 53.7052H6.66667C3.57867 53.7052 1.06667 51.1618 1.06667 48.0352V7.53516C1.06667 4.40855 3.57867 1.86515 6.66667 1.86515H173.333Z" fill="#A6A6A6"/>
<path d="M32.5378 27.3333C32.552 26.2313 32.8448 25.1507 33.3888 24.1922C33.9328 23.2337 34.7104 22.4283 35.6493 21.8511C35.0529 20.9993 34.266 20.2982 33.3512 19.8037C32.4365 19.3091 31.419 19.0347 30.3796 19.0022C28.1624 18.7695 26.0129 20.3289 24.883 20.3289C23.7313 20.3289 21.9917 19.0253 20.1185 19.0638C18.9068 19.103 17.726 19.4553 16.691 20.0865C15.656 20.7178 14.8021 21.6063 14.2126 22.6656C11.659 27.0867 13.5638 33.5843 16.0099 37.158C17.2337 38.908 18.6641 40.8627 20.5356 40.7934C22.367 40.7174 23.051 39.6255 25.2617 39.6255C27.4519 39.6255 28.0936 40.7934 30.0031 40.7493C31.9683 40.7174 33.2065 38.9916 34.3874 37.2251C35.2667 35.9782 35.9434 34.6001 36.3923 33.1418C35.2506 32.6589 34.2762 31.8506 33.5908 30.8177C32.9054 29.7848 32.5392 28.573 32.5378 27.3333Z" fill="white"/>
<path d="M28.9312 16.6519C30.0027 15.3655 30.5306 13.7122 30.4027 12.043C28.7657 12.2149 27.2536 12.9973 26.1676 14.2343C25.6366 14.8385 25.2299 15.5415 24.9708 16.3031C24.7117 17.0646 24.6052 17.8698 24.6575 18.6725C25.4763 18.6809 26.2863 18.5035 27.0266 18.1535C27.7669 17.8034 28.4181 17.29 28.9312 16.6519Z" fill="white"/>
<path d="M55.6889 36.363H49.4391L47.9382 40.7947H45.291L51.2107 24.3984H53.9611L59.8808 40.7947H57.1885L55.6889 36.363ZM50.0864 34.318H55.0404L52.5982 27.1256H52.5299L50.0864 34.318Z" fill="white"/>
<path d="M72.6648 34.8179C72.6648 38.5327 70.6765 40.9194 67.6761 40.9194C66.916 40.9592 66.1601 40.7841 65.4949 40.4142C64.8297 40.0443 64.2821 39.4946 63.9148 38.828H63.8581V44.749H61.4043V28.8402H63.7794V30.8285H63.8246C64.2087 30.165 64.7656 29.6181 65.4358 29.246C66.1061 28.8739 66.8647 28.6904 67.6309 28.7151C70.6649 28.7151 72.6648 31.1134 72.6648 34.8179ZM70.1427 34.8179C70.1427 32.3977 68.892 30.8065 66.9836 30.8065C65.1088 30.8065 63.8478 32.4312 63.8478 34.8179C63.8478 37.2265 65.1088 38.8396 66.9836 38.8396C68.892 38.8396 70.1427 37.2601 70.1427 34.8179Z" fill="white"/>
<path d="M85.823 34.8179C85.823 38.5327 83.8347 40.9194 80.8343 40.9194C80.0742 40.9592 79.3183 40.7841 78.6531 40.4142C77.9879 40.0443 77.4403 39.4946 77.073 38.828H77.0163V44.749H74.5625V28.8402H76.9376V30.8284H76.9827C77.3669 30.165 77.9237 29.6181 78.594 29.246C79.2642 28.8739 80.0229 28.6904 80.7891 28.7151C83.8231 28.7151 85.823 31.1134 85.823 34.8179ZM83.3009 34.8179C83.3009 32.3977 82.0502 30.8065 80.1418 30.8065C78.267 30.8065 77.006 32.4312 77.006 34.8179C77.006 37.2265 78.267 38.8396 80.1418 38.8396C82.0502 38.8396 83.3009 37.2601 83.3009 34.8179Z" fill="white"/>
<path d="M94.5177 36.2262C94.6995 37.8522 96.279 38.9198 98.4375 38.9198C100.506 38.9198 101.994 37.8522 101.994 36.3861C101.994 35.1134 101.096 34.3514 98.9713 33.8292L96.8464 33.3173C93.8356 32.59 92.4379 31.182 92.4379 28.8971C92.4379 26.0682 94.9032 24.125 98.404 24.125C101.869 24.125 104.244 26.0682 104.324 28.8971H101.847C101.698 27.2609 100.346 26.2732 98.3691 26.2732C96.3925 26.2732 95.0399 27.2725 95.0399 28.7269C95.0399 29.8861 95.9038 30.5682 98.0171 31.0904L99.8236 31.534C103.188 32.3295 104.585 33.6809 104.585 36.0791C104.585 39.1467 102.142 41.0679 98.2557 41.0679C94.6195 41.0679 92.1645 39.1918 92.0059 36.2261L94.5177 36.2262Z" fill="white"/>
<path d="M109.881 26.0117V28.8407H112.154V30.7839H109.881V37.3741C109.881 38.3979 110.336 38.8749 111.336 38.8749C111.606 38.8702 111.875 38.8513 112.143 38.8182V40.7497C111.694 40.8337 111.237 40.8717 110.78 40.8632C108.36 40.8632 107.416 39.9541 107.416 37.6358V30.7839H105.678V28.8407H107.416V26.0117H109.881Z" fill="white"/>
<path d="M113.471 34.8181C113.471 31.0569 115.686 28.6934 119.14 28.6934C122.606 28.6934 124.811 31.0568 124.811 34.8181C124.811 38.5896 122.618 40.9428 119.14 40.9428C115.664 40.9428 113.471 38.5896 113.471 34.8181ZM122.311 34.8181C122.311 32.238 121.129 30.7152 119.14 30.7152C117.152 30.7152 115.971 32.2496 115.971 34.8181C115.971 37.4085 117.152 38.9197 119.14 38.9197C121.129 38.9197 122.311 37.4085 122.311 34.8181Z" fill="white"/>
<path d="M126.836 28.8401H129.176V30.8747H129.233C129.391 30.2393 129.764 29.6777 130.287 29.2844C130.811 28.891 131.454 28.69 132.108 28.715C132.391 28.714 132.673 28.7447 132.949 28.8065V31.1017C132.592 30.9926 132.22 30.9425 131.847 30.9534C131.49 30.9389 131.135 31.0018 130.805 31.1376C130.475 31.2735 130.178 31.4791 129.936 31.7404C129.693 32.0017 129.509 32.3125 129.398 32.6513C129.286 32.9902 129.249 33.3493 129.29 33.7037V40.7942H126.836L126.836 28.8401Z" fill="white"/>
<path d="M144.262 37.2835C143.932 39.4535 141.818 40.9428 139.115 40.9428C135.637 40.9428 133.479 38.6128 133.479 34.8748C133.479 31.1252 135.649 28.6934 139.011 28.6934C142.319 28.6934 144.399 30.9653 144.399 34.5899V35.4306H135.955V35.5788C135.917 36.0188 135.972 36.462 136.117 36.879C136.263 37.296 136.495 37.6773 136.799 37.9976C137.103 38.3178 137.472 38.5697 137.881 38.7365C138.29 38.9032 138.73 38.9811 139.171 38.9648C139.751 39.0192 140.333 38.8849 140.83 38.5819C141.328 38.279 141.714 37.8236 141.932 37.2834L144.262 37.2835ZM135.967 33.7156H141.944C141.966 33.3201 141.906 32.9242 141.767 32.5529C141.629 32.1816 141.416 31.8429 141.14 31.558C140.865 31.2731 140.534 31.0482 140.167 30.8974C139.801 30.7466 139.408 30.6731 139.011 30.6816C138.612 30.6793 138.216 30.756 137.846 30.9075C137.476 31.059 137.14 31.2823 136.857 31.5643C136.574 31.8464 136.35 32.1817 136.197 32.551C136.044 32.9202 135.966 33.316 135.967 33.7156Z" fill="white"/>
<path d="M49.7774 12.0578C50.2918 12.0209 50.808 12.0986 51.2888 12.2853C51.7695 12.4721 52.2029 12.7632 52.5575 13.1377C52.9121 13.5121 53.1792 13.9607 53.3395 14.4509C53.4998 14.9411 53.5493 15.4608 53.4845 15.9724C53.4845 18.4894 52.1241 19.9362 49.7774 19.9362H46.9316V12.0578H49.7774ZM48.1553 18.822H49.6407C50.0083 18.844 50.3762 18.7837 50.7175 18.6456C51.0589 18.5074 51.3652 18.2949 51.614 18.0235C51.8629 17.7521 52.0481 17.4286 52.1562 17.0765C52.2643 16.7245 52.2925 16.3528 52.2389 15.9885C52.2887 15.6256 52.2576 15.2562 52.1478 14.9068C52.0381 14.5573 51.8524 14.2365 51.6041 13.9672C51.3558 13.6979 51.051 13.4869 50.7115 13.3493C50.3721 13.2117 50.0064 13.1508 49.6407 13.1711H48.1553V18.822Z" fill="white"/>
<path d="M60.1899 18.33C60.0304 18.8734 59.685 19.3435 59.2141 19.6579C58.7431 19.9723 58.1766 20.1112 57.6136 20.0501C57.2219 20.0605 56.8326 19.9854 56.4728 19.8303C56.113 19.6751 55.7913 19.4435 55.53 19.1515C55.2687 18.8595 55.0741 18.5141 54.9596 18.1394C54.8451 17.7646 54.8136 17.3695 54.8672 16.9813C54.815 16.5919 54.8471 16.1959 54.9613 15.8201C55.0755 15.4442 55.2691 15.0972 55.529 14.8027C55.789 14.5082 56.1092 14.2729 56.4679 14.1129C56.8267 13.9528 57.2156 13.8717 57.6085 13.8751C59.2628 13.8751 60.2608 15.0053 60.2608 16.8723V17.2818H56.0625V17.3475C56.0441 17.5657 56.0716 17.7853 56.143 17.9923C56.2145 18.1993 56.3284 18.389 56.4775 18.5494C56.6266 18.7097 56.8075 18.8372 57.0087 18.9235C57.2099 19.0099 57.427 19.0532 57.6459 19.0508C57.9266 19.0845 58.2109 19.0339 58.4628 18.9056C58.7147 18.7772 58.9227 18.5769 59.0604 18.33L60.1899 18.33ZM56.0624 16.414H59.0655C59.0803 16.2144 59.0531 16.014 58.9859 15.8256C58.9186 15.6371 58.8126 15.4648 58.6748 15.3198C58.537 15.1747 58.3703 15.0601 58.1856 14.9833C58.0008 14.9065 57.802 14.8692 57.602 14.8738C57.399 14.8712 57.1976 14.9093 57.0097 14.9859C56.8217 15.0624 56.6509 15.1757 56.5075 15.3193C56.364 15.4628 56.2507 15.6336 56.1743 15.8216C56.0979 16.0096 56.0598 16.211 56.0624 16.414Z" fill="white"/>
<path d="M64.0077 13.876C65.3448 13.876 66.219 14.4981 66.3338 15.5464H65.2082C65.0999 15.1099 64.673 14.8314 64.0077 14.8314C63.3527 14.8314 62.855 15.1422 62.855 15.6064C62.855 15.9616 63.1555 16.1853 63.8002 16.333L64.7878 16.5618C65.9186 16.8242 66.4486 17.3103 66.4486 18.1839C66.4486 19.3031 65.4055 20.051 63.9858 20.051C62.5713 20.051 61.6494 19.4121 61.5449 18.3586H62.7196C62.8208 18.6094 63.0033 18.8188 63.2379 18.9534C63.4724 19.088 63.7453 19.1398 64.0129 19.1007C64.744 19.1007 65.2636 18.7732 65.2636 18.298C65.2636 17.9434 64.9851 17.7139 64.3894 17.5721L63.3527 17.3316C62.2219 17.064 61.6984 16.5567 61.6984 15.6721C61.6984 14.618 62.6641 13.876 64.0077 13.876Z" fill="white"/>
<path d="M71.9233 15.934C71.8485 15.6257 71.6657 15.3543 71.4081 15.1691C71.1505 14.9839 70.8352 14.8971 70.5191 14.9244C69.5366 14.9244 68.9357 15.6774 68.9357 16.9442C68.9357 18.233 69.5417 19.0028 70.5191 19.0028C70.8321 19.039 71.1475 18.9597 71.4061 18.7797C71.6647 18.5998 71.8486 18.3315 71.9233 18.0254H73.0644C72.9889 18.6275 72.6813 19.1762 72.207 19.5546C71.7327 19.933 71.1293 20.1112 70.5255 20.0511C70.128 20.0636 69.7325 19.9892 69.3667 19.8329C69.001 19.6767 68.6738 19.4424 68.408 19.1465C68.1422 18.8506 67.9443 18.5002 67.8281 18.1198C67.7119 17.7394 67.6802 17.3382 67.7352 16.9443C67.683 16.5533 67.7167 16.1555 67.834 15.7789C67.9514 15.4023 68.1495 15.0558 68.4146 14.7636C68.6796 14.4715 69.0053 14.2407 69.3688 14.0874C69.7323 13.9341 70.1249 13.862 70.5191 13.8761C71.1278 13.82 71.7344 14.0037 72.2098 14.3881C72.6851 14.7724 72.9918 15.327 73.0644 15.934L71.9233 15.934Z" fill="white"/>
<path d="M74.2285 18.2544C74.2285 17.1842 75.0254 16.5672 76.4399 16.4796L78.0503 16.3867V15.8735C78.0503 15.2456 77.6352 14.891 76.8331 14.891C76.1781 14.891 75.7242 15.1315 75.594 15.5518H74.458C74.578 14.5306 75.5386 13.8756 76.8873 13.8756C78.3779 13.8756 79.2186 14.6176 79.2186 15.8735V19.9359H78.089V19.1003H77.9962C77.8078 19.4 77.5432 19.6444 77.2294 19.8084C76.9157 19.9724 76.564 20.0502 76.2104 20.0338C75.9608 20.0598 75.7085 20.0331 75.4698 19.9556C75.2312 19.8781 75.0114 19.7515 74.8247 19.5838C74.6379 19.4162 74.4884 19.2113 74.3857 18.9823C74.2831 18.7533 74.2295 18.5054 74.2285 18.2544ZM78.0503 17.7464V17.2493L76.5985 17.3422C75.7797 17.397 75.4083 17.6755 75.4083 18.1996C75.4083 18.7347 75.8725 19.0461 76.5108 19.0461C76.6979 19.0651 76.8868 19.0462 77.0664 18.9906C77.2459 18.935 77.4125 18.8439 77.5561 18.7226C77.6998 18.6014 77.8175 18.4525 77.9024 18.2847C77.9873 18.117 78.0376 17.934 78.0503 17.7464ZM76.1833 12.9962L77.5539 11.1182H78.9297L77.3953 12.9962H76.1833Z" fill="white"/>
<path d="M81.0566 13.99H82.1862V14.9016H82.2739C82.4003 14.5851 82.6238 14.3169 82.9122 14.1354C83.2006 13.9539 83.5392 13.8684 83.8792 13.8913C84.0549 13.889 84.2304 13.9054 84.4027 13.9403V15.0983C84.1873 15.0523 83.9679 15.0285 83.7477 15.0274C83.5541 15.01 83.3591 15.0333 83.1751 15.0958C82.9911 15.1583 82.8222 15.2585 82.6793 15.3902C82.5364 15.5218 82.4226 15.6819 82.3452 15.8601C82.2678 16.0384 82.2286 16.2308 82.23 16.4251V19.9355H81.0567L81.0566 13.99Z" fill="white"/>
<path d="M85.4807 20.5311H86.6818C86.7811 20.9624 87.2776 21.2409 88.0693 21.2409C89.0466 21.2409 89.6256 20.7767 89.6256 19.9908V18.8497H89.5379C89.3539 19.1691 89.0851 19.4314 88.7613 19.6077C88.4375 19.7839 88.0713 19.8672 87.7031 19.8483C86.1854 19.8483 85.2461 18.675 85.2461 16.8949C85.2461 15.0821 86.1958 13.8919 87.7147 13.8919C88.0921 13.8787 88.4658 13.9696 88.7951 14.1544C89.1244 14.3393 89.3965 14.6111 89.5818 14.9402H89.6746V13.9905H90.799V19.985C90.799 21.3447 89.7339 22.2073 88.0525 22.2073C86.5671 22.2074 85.6059 21.5413 85.4807 20.5311ZM89.6475 16.8891C89.6475 15.7048 89.035 14.946 88.0357 14.946C87.0261 14.946 86.4588 15.7048 86.4588 16.8891C86.4588 18.0741 87.0261 18.8329 88.0357 18.8329C89.0415 18.8329 89.6475 18.0799 89.6475 16.8891Z" fill="white"/>
<path d="M92.3281 18.2548C92.3281 17.1846 93.125 16.5676 94.5395 16.4799L96.15 16.3871V15.8739C96.15 15.246 95.7348 14.8914 94.9328 14.8914C94.2777 14.8914 93.8239 15.1319 93.6936 15.5522H92.5577C92.6776 14.531 93.6382 13.876 94.9869 13.876C96.4775 13.876 97.3182 14.618 97.3182 15.8739V19.9362H96.1886V19.1007H96.0958C95.9074 19.4004 95.6428 19.6447 95.329 19.8087C95.0153 19.9727 94.6636 20.0505 94.31 20.0342C94.0604 20.0602 93.8081 20.0335 93.5694 19.956C93.3308 19.8785 93.111 19.7519 92.9243 19.5842C92.7375 19.4166 92.588 19.2117 92.4853 18.9827C92.3827 18.7537 92.3291 18.5058 92.3281 18.2548ZM96.15 17.7468V17.2497L94.6981 17.3426C93.8793 17.3974 93.5079 17.6759 93.5079 18.2C93.5079 18.7351 93.9721 19.0465 94.6104 19.0465C94.7975 19.0654 94.9864 19.0466 95.166 18.991C95.3455 18.9354 95.5121 18.8443 95.6557 18.723C95.7994 18.6018 95.9171 18.4528 96.002 18.2851C96.087 18.1174 96.1373 17.9343 96.15 17.7468Z" fill="white"/>
<path d="M99.2109 11.6689H100.384V19.9354H99.2109V11.6689Z" fill="white"/>
<path d="M102.015 16.9608C101.978 16.5701 102.023 16.1759 102.146 15.8035C102.27 15.431 102.471 15.0886 102.735 14.7982C102.999 14.5077 103.32 14.2756 103.679 14.1168C104.038 13.958 104.427 13.876 104.819 13.876C105.212 13.876 105.6 13.958 105.959 14.1168C106.318 14.2756 106.639 14.5077 106.903 14.7982C107.167 15.0886 107.368 15.431 107.492 15.8035C107.616 16.1759 107.66 16.5701 107.623 16.9608C107.661 17.352 107.617 17.7467 107.493 18.1198C107.37 18.4928 107.169 18.8359 106.905 19.1269C106.641 19.4179 106.319 19.6505 105.96 19.8096C105.601 19.9688 105.212 20.051 104.819 20.051C104.426 20.051 104.037 19.9688 103.678 19.8096C103.319 19.6505 102.997 19.4179 102.733 19.1269C102.469 18.8359 102.268 18.4928 102.145 18.1198C102.021 17.7467 101.977 17.352 102.015 16.9608ZM106.416 16.9608C106.416 15.6721 105.837 14.9184 104.821 14.9184C103.801 14.9184 103.227 15.6721 103.227 16.9609C103.227 18.2599 103.801 19.0078 104.821 19.0078C105.837 19.0078 106.416 18.2548 106.416 16.9608Z" fill="white"/>
<path d="M117.45 18.33C117.29 18.8734 116.945 19.3435 116.474 19.6579C116.003 19.9723 115.436 20.1112 114.873 20.0501C114.482 20.0605 114.092 19.9854 113.733 19.8303C113.373 19.6751 113.051 19.4435 112.79 19.1515C112.528 18.8595 112.334 18.5141 112.219 18.1394C112.105 17.7646 112.073 17.3695 112.127 16.9813C112.075 16.5919 112.107 16.1959 112.221 15.8201C112.335 15.4442 112.529 15.0972 112.789 14.8027C113.049 14.5082 113.369 14.2729 113.728 14.1129C114.086 13.9528 114.475 13.8717 114.868 13.8751C116.523 13.8751 117.521 15.0053 117.521 16.8723V17.2818H113.322V17.3475C113.304 17.5657 113.331 17.7853 113.403 17.9923C113.474 18.1993 113.588 18.389 113.737 18.5494C113.886 18.7097 114.067 18.8372 114.268 18.9235C114.47 19.0099 114.687 19.0532 114.906 19.0508C115.186 19.0845 115.471 19.0339 115.723 18.9056C115.974 18.7772 116.182 18.5769 116.32 18.33L117.45 18.33ZM113.322 16.414H116.325C116.34 16.2144 116.313 16.014 116.246 15.8256C116.178 15.6371 116.072 15.4648 115.935 15.3198C115.797 15.1747 115.63 15.0601 115.445 14.9833C115.261 14.9065 115.062 14.8692 114.862 14.8738C114.659 14.8712 114.457 14.9093 114.269 14.9858C114.081 15.0623 113.911 15.1757 113.767 15.3193C113.624 15.4628 113.51 15.6336 113.434 15.8216C113.358 16.0096 113.32 16.211 113.322 16.414Z" fill="white"/>
<path d="M119.098 13.9907H120.227V14.9352H120.315C120.464 14.596 120.714 14.3116 121.033 14.1218C121.351 13.9319 121.72 13.846 122.089 13.876C122.378 13.8542 122.669 13.8978 122.939 14.0036C123.209 14.1094 123.452 14.2745 123.65 14.4869C123.847 14.6993 123.995 14.9534 124.081 15.2304C124.167 15.5075 124.189 15.8003 124.147 16.0873V19.9362H122.974V16.382C122.974 15.4265 122.558 14.9514 121.691 14.9514C121.494 14.9422 121.298 14.9756 121.116 15.0494C120.934 15.1231 120.769 15.2353 120.635 15.3784C120.5 15.5215 120.397 15.6921 120.335 15.8785C120.272 16.0648 120.25 16.2625 120.271 16.458V19.9362H119.098V13.9907Z" fill="white"/>
<path d="M134.213 18.33C134.054 18.8734 133.708 19.3435 133.238 19.6579C132.767 19.9723 132.2 20.1112 131.637 20.0501C131.245 20.0605 130.856 19.9854 130.496 19.8303C130.136 19.6751 129.815 19.4435 129.553 19.1515C129.292 18.8595 129.097 18.5141 128.983 18.1394C128.869 17.7646 128.837 17.3695 128.891 16.9813C128.838 16.5919 128.871 16.1959 128.985 15.8201C129.099 15.4442 129.293 15.0972 129.552 14.8027C129.812 14.5082 130.133 14.2729 130.491 14.1129C130.85 13.9528 131.239 13.8717 131.632 13.8751C133.286 13.8751 134.284 15.0053 134.284 16.8723V17.2818H130.086V17.3475C130.067 17.5657 130.095 17.7853 130.166 17.9923C130.238 18.1993 130.352 18.389 130.501 18.5494C130.65 18.7097 130.831 18.8372 131.032 18.9235C131.233 19.0099 131.45 19.0532 131.669 19.0508C131.95 19.0845 132.234 19.0339 132.486 18.9056C132.738 18.7772 132.946 18.5769 133.084 18.33L134.213 18.33ZM130.086 16.414H133.089C133.104 16.2144 133.077 16.014 133.009 15.8256C132.942 15.6371 132.836 15.4648 132.698 15.3198C132.56 15.1747 132.394 15.0601 132.209 14.9833C132.024 14.9065 131.825 14.8692 131.625 14.8738C131.422 14.8712 131.221 14.9093 131.033 14.9858C130.845 15.0623 130.674 15.1757 130.531 15.3192C130.387 15.4628 130.274 15.6336 130.198 15.8216C130.121 16.0096 130.083 16.211 130.086 16.414Z" fill="white"/>
<path d="M135.914 11.6689H137.087V19.9354H135.914V11.6689Z" fill="white"/>
</svg>
