<svg width="60" height="45" viewBox="0 0 60 45" fill="none" xmlns="http://www.w3.org/2000/svg">
<path d="M12.5255 10.9676C13.6879 8.6181 16.0786 7.13184 18.6953 7.13184H27.0359C31.8722 7.13184 35.202 11.9968 33.4606 16.5187L24.2762 40.3682C23.2513 43.0297 20.698 44.7849 17.8515 44.7849H6.89544C1.78604 44.7849 -1.54415 39.4048 0.725639 34.8171L12.5255 10.9676Z" fill="#13F477"/>
<path fill-rule="evenodd" clip-rule="evenodd" d="M33.6843 0C31.0667 0 28.6754 1.48729 27.5134 3.83803L12.1991 34.8194C9.9315 39.4069 13.2617 44.785 18.37 44.785H37.28C39.9176 44.785 42.3235 43.2752 43.4753 40.8972L48.6496 30.2144H40.023C35.7125 30.2144 32.2182 26.7124 32.2182 22.3924C32.2182 18.0724 35.7125 14.5704 40.023 14.5704H56.2271L58.4816 9.91578C60.7018 5.33195 57.3705 0 52.2863 0H33.6843Z" fill="#0B7039"/>
<ellipse cx="3.67287" cy="3.68095" rx="3.67287" ry="3.68095" transform="matrix(-1 0 0 1 44.3066 18.7109)" fill="#003419"/>
</svg>
